<svg width="24" height="24" viewBox="0 0 24 24" fill="none" xmlns="http://www.w3.org/2000/svg">
<path d="M11.6045 22C13.6271 21.9909 15.5636 21.1799 16.9892 19.745C18.4148 18.3101 19.213 16.3683 19.2089 14.3456C19.2089 8.72192 12.3168 2.4328 12.0231 2.16099C11.9083 2.05736 11.7591 2 11.6045 2C11.4498 2 11.3006 2.05736 11.1858 2.16099C10.8921 2.42655 4.00002 8.72192 4.00002 14.3456C3.99586 16.3683 4.79411 18.3101 6.21969 19.745C7.64526 21.1799 9.58177 21.9909 11.6045 22ZM11.6045 3.49192C13.0822 4.93845 17.9592 10.0341 17.9592 14.3456C17.978 15.1922 17.8274 16.034 17.5164 16.8216C17.2054 17.6092 16.7402 18.3267 16.1481 18.9321C15.556 19.5375 14.849 20.0184 14.0685 20.3468C13.2879 20.6752 12.4497 20.8444 11.6029 20.8444C10.7561 20.8444 9.91785 20.6752 9.13733 20.3468C8.35681 20.0184 7.64975 19.5375 7.05765 18.9321C6.46556 18.3267 6.00036 17.6092 5.68936 16.8216C5.37836 16.034 5.22782 15.1922 5.24659 14.3456C5.24659 10.0341 10.1236 4.93845 11.6045 3.49192Z" fill="white"/>
<path d="M11.6076 19.5006C12.969 19.4907 14.2709 18.941 15.2274 17.9722C16.1839 17.0033 16.717 15.6945 16.7095 14.3331C16.7095 14.2873 16.7095 14.2404 16.7095 14.1925C16.7002 14.0855 16.6663 13.982 16.6106 13.8901C16.5549 13.7983 16.4788 13.7205 16.3881 13.6628C16.2975 13.6051 16.1948 13.569 16.088 13.5574C15.9812 13.5458 15.8731 13.5589 15.7722 13.5958C15.2136 13.7307 14.6411 13.7999 14.0664 13.802C11.7732 13.7988 10.6703 12.3148 9.25814 12.3148C7.84597 12.3148 6.44631 13.2958 6.44631 14.6018C6.43381 17.4511 8.79575 19.5006 11.6076 19.5006Z" fill="white"/>
</svg>
