<svg width="28" height="28" viewBox="0 0 28 28" fill="none" xmlns="http://www.w3.org/2000/svg">
<path d="M13.3864 14.3081C13.8557 14.7742 14.4151 15.1396 15.0305 15.3819C15.6459 15.6243 16.3043 15.7384 16.9654 15.7174C16.5657 16.3753 15.9674 16.8893 15.2569 17.1854C14.5463 17.4815 13.7601 17.5444 13.0115 17.365C12.2629 17.1855 11.5906 16.7731 11.0914 16.187C10.5923 15.601 10.2921 14.8716 10.2341 14.104C10.1651 13.4433 10.2833 12.7766 10.5751 12.1798C10.8669 11.5831 11.3206 11.0804 11.8844 10.7292C11.8784 11.3965 12.0084 12.058 12.2667 12.6734C12.5249 13.2887 12.906 13.845 13.3864 14.3081ZM22.9722 13.826C22.9733 15.0254 22.7378 16.2133 22.2793 17.3217C21.8208 18.4301 21.1482 19.4371 20.3001 20.2853C19.4519 21.1334 18.4449 21.806 17.3365 22.2645C16.2281 22.7231 15.0402 22.9585 13.8408 22.9575C1.72591 22.4837 1.72591 5.16818 13.8408 4.6945C15.0402 4.69343 16.2281 4.92889 17.3365 5.38741C18.4449 5.84593 19.4519 6.51851 20.3001 7.36666C21.1482 8.21481 21.8208 9.22188 22.2793 10.3302C22.7378 11.4386 22.9733 12.6265 22.9722 13.826ZM19.7672 14.6323C19.7865 14.4546 19.7589 14.275 19.6871 14.1113C19.6153 13.9476 19.5018 13.8056 19.358 13.6996C19.2141 13.5935 19.045 13.527 18.8674 13.5067C18.6898 13.4865 18.51 13.5132 18.346 13.5841C17.7512 13.8548 17.0873 13.9351 16.4451 13.8143C15.8029 13.6934 15.2136 13.3771 14.7579 12.9088C14.2761 12.4604 13.944 11.8744 13.807 11.2306C13.6699 10.5868 13.7345 9.91638 13.992 9.31059C14.0598 9.1437 14.0821 8.96182 14.0568 8.78347C14.0314 8.60513 13.9592 8.43669 13.8475 8.29534C13.7359 8.15398 13.5887 8.04475 13.4211 7.97878C13.2535 7.9128 13.0714 7.89245 12.8933 7.91978C11.406 8.14045 10.0599 8.92277 9.13186 10.1058C8.20384 11.2888 7.76453 12.7825 7.90432 14.2795C8.37602 21.0907 18.4603 22.0001 19.7672 14.6323ZM14.8487 2.57285V0.993109C14.8447 0.728379 14.7368 0.475816 14.5482 0.289991C14.3596 0.104166 14.1055 0 13.8408 0C13.576 0 13.3219 0.104166 13.1333 0.289991C12.9447 0.475816 12.8368 0.728379 12.8329 0.993109V2.57281C12.8368 2.83754 12.9447 3.0901 13.1333 3.27593C13.3219 3.46176 13.576 3.56593 13.8407 3.56594C14.1055 3.56594 14.3596 3.46178 14.5482 3.27596C14.7368 3.09014 14.8447 2.83758 14.8487 2.57285ZM14.8487 26.6588V25.0791C14.8447 24.8144 14.7368 24.5618 14.5482 24.376C14.3596 24.1902 14.1055 24.086 13.8408 24.086C13.576 24.086 13.3219 24.1902 13.1333 24.376C12.9447 24.5618 12.8368 24.8144 12.8329 25.0791V26.6588C12.8368 26.9235 12.9447 27.1761 13.1333 27.3619C13.3219 27.5478 13.576 27.6519 13.8407 27.6519C14.1055 27.6519 14.3596 27.5478 14.5482 27.362C14.7368 27.1761 14.8447 26.9236 14.8487 26.6588ZM22.5106 6.58079L23.6278 5.46463C23.8101 5.27428 23.9107 5.02008 23.9078 4.7565C23.905 4.49291 23.799 4.24093 23.6127 4.05454C23.4263 3.86815 23.1743 3.76219 22.9107 3.75937C22.6471 3.75656 22.3929 3.8571 22.2026 4.03946L21.0855 5.15557C20.9029 5.34587 20.8022 5.60015 20.8049 5.86385C20.8077 6.12754 20.9136 6.37967 21.1001 6.56614C21.2866 6.75262 21.5387 6.85859 21.8024 6.86133C22.0661 6.86406 22.3203 6.76335 22.5106 6.58079ZM5.47892 23.6125L6.59606 22.4964C6.77877 22.3061 6.87961 22.0518 6.87693 21.788C6.87424 21.5242 6.76826 21.272 6.58171 21.0854C6.39516 20.8989 6.14293 20.7929 5.87914 20.7903C5.61535 20.7876 5.36103 20.8885 5.17076 21.0712L4.05366 22.1873C3.87089 22.3776 3.77 22.6319 3.77265 22.8958C3.7753 23.1596 3.88128 23.4118 4.06784 23.5984C4.25441 23.785 4.50667 23.8909 4.77049 23.8936C5.03431 23.8962 5.28866 23.7953 5.47892 23.6125ZM27.6815 13.826C27.6816 13.6936 27.6555 13.5625 27.6049 13.4402C27.5542 13.3179 27.48 13.2068 27.3864 13.1132C27.2928 13.0196 27.1817 12.9454 27.0594 12.8947C26.9371 12.8441 26.806 12.8181 26.6736 12.8181H25.0944C24.8271 12.8181 24.5707 12.9243 24.3817 13.1133C24.1927 13.3023 24.0865 13.5587 24.0865 13.826C24.0865 14.0933 24.1927 14.3496 24.3817 14.5387C24.5707 14.7277 24.8271 14.8339 25.0944 14.8339H26.6736C26.806 14.8339 26.9371 14.8079 27.0594 14.7572C27.1817 14.7066 27.2928 14.6323 27.3864 14.5387C27.48 14.4451 27.5542 14.334 27.6049 14.2117C27.6555 14.0894 27.6816 13.9583 27.6815 13.826ZM3.59503 13.826C3.59507 13.6936 3.56902 13.5625 3.51838 13.4402C3.46774 13.3179 3.3935 13.2068 3.29991 13.1132C3.20631 13.0196 3.09518 12.9454 2.97288 12.8947C2.85059 12.8441 2.71951 12.8181 2.58714 12.8181H1.00789C0.740581 12.8181 0.48422 12.9243 0.295204 13.1133C0.106188 13.3023 0 13.5587 0 13.826C0 14.0933 0.106188 14.3496 0.295204 14.5387C0.48422 14.7277 0.740581 14.8339 1.00789 14.8339H2.58714C2.71951 14.8339 2.85059 14.8079 2.97288 14.7572C3.09518 14.7066 3.20631 14.6323 3.29991 14.5387C3.3935 14.4451 3.46774 14.334 3.51838 14.2117C3.56902 14.0894 3.59507 13.9583 3.59503 13.826ZM23.6283 23.6125C23.8172 23.4235 23.9232 23.1671 23.9231 22.8998C23.9231 22.6326 23.8168 22.3763 23.6278 22.1873L22.5107 21.0712C22.4171 20.9776 22.306 20.9034 22.1837 20.8527C22.0615 20.8021 21.9304 20.776 21.7981 20.776C21.6657 20.776 21.5347 20.8021 21.4124 20.8527C21.2901 20.9034 21.179 20.9776 21.0855 21.0712C20.9919 21.1648 20.9176 21.2758 20.867 21.3981C20.8164 21.5204 20.7903 21.6514 20.7903 21.7838C20.7903 21.9161 20.8164 22.0472 20.867 22.1694C20.9176 22.2917 20.9919 22.4028 21.0855 22.4964L22.2026 23.6125C22.2962 23.7062 22.4073 23.7804 22.5297 23.8311C22.652 23.8818 22.7831 23.9078 22.9155 23.9078C23.0478 23.9078 23.1789 23.8818 23.3012 23.8311C23.4236 23.7804 23.5347 23.7062 23.6283 23.6125ZM6.59655 6.58079C6.78543 6.3917 6.89148 6.13534 6.89139 5.86808C6.8913 5.60081 6.78507 5.34453 6.59606 5.15557L5.47892 4.03941C5.38534 3.94583 5.27424 3.87159 5.15197 3.82095C5.0297 3.7703 4.89865 3.74424 4.76631 3.74424C4.63397 3.74424 4.50292 3.7703 4.38065 3.82095C4.25838 3.87159 4.14728 3.94583 4.0537 4.03941C3.96012 4.13299 3.88589 4.24409 3.83524 4.36636C3.78459 4.48863 3.75853 4.61968 3.75853 4.75202C3.75853 4.88436 3.78459 5.01541 3.83524 5.13768C3.88589 5.25995 3.96012 5.37105 4.0537 5.46463L5.17084 6.58079C5.26445 6.6744 5.37559 6.74866 5.4979 6.79933C5.62021 6.84999 5.75131 6.87607 5.8837 6.87607C6.01609 6.87607 6.14718 6.84999 6.26949 6.79933C6.3918 6.74866 6.50294 6.6744 6.59655 6.58079Z" fill="black"/>
</svg>
