<svg width="24" height="24" viewBox="0 0 24 24" fill="none" xmlns="http://www.w3.org/2000/svg">
<path fill-rule="evenodd" clip-rule="evenodd" d="M15.7574 2L17.4479 5.11745C17.6235 5.40285 17.7333 5.75412 17.7333 6.14929C17.7333 7.24698 16.8551 8.12514 15.7574 8.12514C14.6597 8.12514 13.7816 7.24698 13.7816 6.14929C13.7816 5.77607 13.8913 5.42481 14.067 5.11745L15.7574 2ZM14.8134 7.37871C15.0549 7.37871 15.2964 7.20307 15.3622 6.96158C15.4092 6.79718 15.3306 6.67675 15.217 6.50286C15.1183 6.35165 14.9931 6.16001 14.9012 5.86389C14.8134 5.60044 14.7256 5.29309 14.8134 4.94182C14.843 4.82334 14.886 4.73594 14.9342 4.63769C14.9933 4.51747 15.0603 4.38101 15.1207 4.15148C15.1427 4.10757 15.2305 3.7124 15.1866 3.69045C15.1647 3.69045 15.0768 3.82217 14.6378 4.63447C14.2206 5.40285 14.1987 5.46872 14.1767 5.55653C14.1739 5.56929 14.1706 5.58352 14.167 5.5991C14.1147 5.82491 13.9962 6.33699 14.2426 6.82986C14.3085 6.98354 14.506 7.37871 14.8134 7.37871ZM9.25905 7.68605L7.5686 4.5686L5.87815 7.68605C5.70252 7.9934 5.59275 8.34467 5.59275 8.71788C5.59275 9.81558 6.47091 10.6937 7.5686 10.6937C8.6663 10.6937 9.54445 9.81558 9.54445 8.71788C9.56641 8.34467 9.45664 7.9934 9.25905 7.68605ZM7.19539 9.55213C7.12952 9.79362 6.88803 9.96926 6.64654 9.96926C6.33918 9.96926 6.1416 9.57409 6.07574 9.42041C5.8293 8.92754 5.94786 8.41546 6.00014 8.18965L6.00988 8.14708C6.03183 8.05927 6.05378 7.9934 6.47091 7.22502C6.90999 6.41272 6.9978 6.281 7.01976 6.281C7.06366 6.30295 6.97585 6.69812 6.95389 6.74203C6.89349 6.97156 6.82644 7.10802 6.76738 7.22824C6.7191 7.32649 6.67616 7.41389 6.64654 7.53237C6.55872 7.88364 6.64654 8.19099 6.73435 8.45444C6.82562 8.74852 6.94968 8.93486 7.0481 9.08271C7.16276 9.25494 7.24264 9.37493 7.19539 9.55213ZM13.4962 14.0746L11.8057 10.9572L10.1153 14.0746C9.93963 14.382 9.82986 14.7332 9.82986 15.1065C9.82986 16.2042 10.708 17.0823 11.8057 17.0823C12.9034 17.0823 13.7816 16.2042 13.7816 15.1065C13.7816 14.7332 13.6718 14.382 13.4962 14.0746ZM11.4325 15.9407C11.3666 16.1822 11.1251 16.3578 10.8836 16.3578C10.5763 16.3578 10.3787 15.9627 10.3128 15.809C10.0664 15.3161 10.185 14.804 10.2372 14.5782L10.247 14.5357C10.2689 14.4478 10.2909 14.382 10.708 13.6136C11.1471 12.8013 11.2349 12.6696 11.2569 12.6696C11.3008 12.6915 11.213 13.0867 11.191 13.1306C11.1306 13.3601 11.0635 13.4966 11.0045 13.6168C10.9562 13.7151 10.9133 13.8025 10.8836 13.921C10.7958 14.2722 10.8836 14.5796 10.9715 14.843C11.0561 15.1499 11.1816 15.3395 11.2815 15.4904C11.3888 15.6526 11.4666 15.7701 11.4325 15.9407ZM8.6663 18.9923L6.97585 15.8749L5.2854 18.9923C5.10977 19.2997 5 19.6509 5 20.0241C5 21.1218 5.87816 22 6.97585 22C8.07355 22 8.9517 21.1218 8.9517 20.0241C8.9517 19.6509 8.84193 19.2997 8.6663 18.9923ZM6.60263 20.8584C6.53677 21.0999 6.29528 21.2755 6.05379 21.2755C5.74643 21.2755 5.54885 20.8803 5.48299 20.7267C5.23655 20.2338 5.35511 19.7217 5.40739 19.4959L5.41712 19.4533C5.43908 19.3655 5.46103 19.2997 5.87816 18.5313C6.31723 17.719 6.40505 17.5873 6.427 17.5873C6.47091 17.6092 6.3831 18.0044 6.36114 18.0483C6.30074 18.2778 6.23369 18.4143 6.17462 18.5345C6.12635 18.6328 6.08341 18.7201 6.05379 18.8386C5.96597 19.1899 6.05379 19.4972 6.1416 19.7607C6.22626 20.0676 6.35172 20.2571 6.4516 20.4081C6.55894 20.5702 6.63675 20.6878 6.60263 20.8584ZM17.0746 14.4698L18.7651 17.5873C18.9407 17.8946 19.0505 18.2459 19.0505 18.6191C19.0505 19.7168 18.1723 20.5949 17.0746 20.5949C15.977 20.5949 15.0988 19.7168 15.0988 18.6191C15.0988 18.2459 15.2086 17.8946 15.3842 17.5873L17.0746 14.4698ZM16.1526 19.8705C16.3941 19.8705 16.6356 19.6948 16.7014 19.4533C16.7355 19.2828 16.6577 19.1652 16.5504 19.003C16.4505 18.8521 16.3251 18.6625 16.2404 18.3556C16.1526 18.0922 16.0648 17.7848 16.1526 17.4336C16.1822 17.3151 16.2251 17.2277 16.2734 17.1294C16.3325 17.0092 16.3995 16.8728 16.4599 16.6432C16.4819 16.5993 16.5697 16.2042 16.5258 16.1822C16.5038 16.1822 16.416 16.3139 15.977 17.1262C15.5598 17.8946 15.5379 17.9605 15.5159 18.0483L15.5062 18.0909C15.4539 18.3167 15.3353 18.8287 15.5818 19.3216C15.6476 19.4753 15.8452 19.8705 16.1526 19.8705Z" fill="white"/>
</svg>
