<svg width="24" height="24" viewBox="0 0 24 24" fill="none" xmlns="http://www.w3.org/2000/svg">
<path d="M12.4069 16.1544V6.92321C12.4069 6.58048 12.1344 6.30298 11.7984 6.30298C11.4621 6.30298 11.1899 6.58048 11.1899 6.92321V16.1546C10.3065 16.4169 9.66179 17.2337 9.66179 18.202C9.66179 19.3821 10.6181 20.3386 11.7984 20.3386C12.9787 20.3386 13.935 19.3823 13.935 18.202C13.935 17.2335 13.2901 16.4166 12.4069 16.1544Z" fill="white"/>
<path d="M13.935 15.0624V13.6321H13.816C13.6194 13.6321 13.4602 13.4728 13.4602 13.276C13.4602 13.0791 13.6194 12.9201 13.816 12.9201H13.935V11.2583H13.816C13.6194 11.2583 13.4602 11.0986 13.4602 10.9022C13.4602 10.7054 13.6194 10.5461 13.816 10.5461H13.935V8.88432H13.816C13.6194 8.88432 13.4602 8.72483 13.4602 8.52822C13.4602 8.33139 13.6194 8.17189 13.816 8.17189H13.935V6.51034H13.816C13.6194 6.51034 13.4602 6.35107 13.4602 6.15401C13.4602 5.95764 13.6194 5.79814 13.816 5.79814H13.935V4.13658H13.816C13.6194 4.13658 13.4602 3.97686 13.4602 3.78003C13.4602 3.5855 13.6167 3.42808 13.8105 3.42462C13.5164 2.59626 12.7268 2 11.7984 2C10.8702 2 10.0803 2.59626 9.78625 3.42485C9.98032 3.42831 10.1368 3.58573 10.1368 3.78026C10.1368 3.97709 9.97709 4.13682 9.78049 4.13682H9.66179V5.79837H9.78049C9.97709 5.79837 10.1368 5.95787 10.1368 6.15424C10.1368 6.35107 9.97709 6.51057 9.78049 6.51057H9.66179V8.17213H9.78049C9.97709 8.17213 10.1368 8.33162 10.1368 8.52845C10.1368 8.72506 9.97709 8.88455 9.78049 8.88455H9.66179V10.5463H9.78049C9.97709 10.5463 10.1368 10.7056 10.1368 10.9024C10.1368 11.0988 9.97709 11.2585 9.78049 11.2585H9.66179V12.9203H9.78049C9.97709 12.9203 10.1368 13.0794 10.1368 13.2762C10.1368 13.473 9.97709 13.6323 9.78049 13.6323H9.66179V15.0627C8.63014 15.7666 8 16.9448 8 18.2019C8 20.2967 9.70397 22 11.7981 22C13.8923 22 15.5963 20.2965 15.5963 18.2019C15.5965 16.9446 14.9664 15.7663 13.935 15.0624ZM11.7984 21.0506C10.2276 21.0506 8.94982 19.7728 8.94982 18.2019C8.94982 17.1889 9.49561 16.2439 10.3747 15.735L10.6116 15.5983V4.13682C10.6116 3.48224 11.144 2.94982 11.7984 2.94982C12.4527 2.94982 12.9851 3.48247 12.9851 4.13682V15.5983L13.2221 15.735C14.1009 16.2439 14.6469 17.1891 14.6469 18.2019C14.6469 19.7728 13.3689 21.0506 11.7984 21.0506Z" fill="white"/>
</svg>
