<svg width="24" height="24" viewBox="0 0 24 24" fill="none" xmlns="http://www.w3.org/2000/svg">
<path fill-rule="evenodd" clip-rule="evenodd" d="M17.4401 7.31433C19.1234 8.17812 20.5768 9.43034 21.6801 10.9674C21.8881 11.2568 22 11.6043 22 11.9607C22 12.3172 21.8881 12.6646 21.6801 12.9541C20.5768 14.4911 19.1234 15.7433 17.4401 16.6071C15.7568 17.4709 13.892 17.9214 12 17.9214C10.108 17.9214 8.2432 17.4709 6.55989 16.6071C4.87658 15.7433 3.42316 14.4911 2.31989 12.9541C2.11189 12.6646 2 12.3172 2 11.9607C2 11.6043 2.11189 11.2568 2.31989 10.9674C3.42316 9.43034 4.87658 8.17812 6.55989 7.31433C8.2432 6.45054 10.108 6 12 6C13.892 6 15.7568 6.45054 17.4401 7.31433ZM9.59867 15.5546C10.3095 16.0295 11.1451 16.283 12 16.283C13.1463 16.283 14.2457 15.8276 15.0563 15.017C15.8669 14.2064 16.3223 13.1071 16.3223 11.9607C16.3223 11.1058 16.0688 10.2702 15.5938 9.55939C15.1189 8.8486 14.4439 8.2946 13.6541 7.96746C12.8643 7.64031 11.9952 7.55472 11.1568 7.72149C10.3183 7.88827 9.54817 8.29993 8.94369 8.90441C8.33921 9.50889 7.92756 10.279 7.76078 11.1175C7.594 11.9559 7.6796 12.825 8.00674 13.6148C8.33388 14.4046 8.88788 15.0796 9.59867 15.5546ZM14.9157 11.9023C14.9157 13.5665 13.5666 14.9157 11.9023 14.9157C10.2381 14.9157 8.88897 13.5665 8.88897 11.9023C8.88897 10.2381 10.2381 8.88892 11.9023 8.88892C13.5666 8.88892 14.9157 10.2381 14.9157 11.9023Z" fill="white"/>
</svg>
