<svg width="24" height="24" viewBox="0 0 24 24" fill="none" xmlns="http://www.w3.org/2000/svg">
<path d="M9.0312 7.16663C9.6756 7.16663 10.2292 7.72021 10.2292 8.36454C10.2292 9.00888 9.6756 9.51038 9.0312 9.51038H3.1458C2.5015 9.51038 2 9.00888 2 8.36454C2 7.72021 2.5015 7.16663 3.1458 7.16663H9.0312Z" fill="white"/>
<path d="M12.1563 14.5104C12.8006 14.5104 13.3021 15.0119 13.3021 15.6562C13.3021 16.3005 12.8006 16.8541 12.1563 16.8541H3.14579C2.50149 16.8541 1.99999 16.3005 1.99999 15.6562C1.99999 15.0119 2.50149 14.5104 3.14579 14.5104H12.1563Z" fill="white"/>
<path d="M17.8333 10.8646C18.4777 10.8646 18.9792 11.3661 18.9792 12.0105C18.9792 12.6548 18.4777 13.1563 17.8333 13.1563H3.1458C2.5015 13.1563 2 12.6548 2 12.0105C2 11.3661 2.5015 10.8646 3.1458 10.8646H17.8333Z" fill="white"/>
<path d="M18.7708 6.69788C20.5553 6.69788 22 8.14233 22 9.92704C22 11.7221 20.5135 13.1562 18.7188 13.1562H17.7812C17.1369 13.1562 16.6354 12.6547 16.6354 12.0104C16.6354 11.366 17.1369 10.8645 17.7812 10.8645H18.7188C19.2216 10.8645 19.6562 10.4367 19.6562 9.92704C19.6562 9.42776 19.2633 8.98954 18.7708 8.98954H18.6146C18.3439 8.98954 18.0974 9.15786 17.9896 9.40621C17.733 9.99724 17.0181 10.2878 16.4271 10.0312C15.8361 9.77461 15.5976 9.05974 15.8542 8.46871C16.3321 7.36784 17.4145 6.69788 18.6146 6.69788H18.7708Z" fill="white"/>
<path d="M8.9271 3C10.7115 3 12.1562 4.49653 12.1562 6.28125C12.1562 8.07635 10.7218 9.51042 8.9271 9.51042H7.9896C7.3452 9.51042 6.7917 9.00892 6.7917 8.36458C6.7917 7.72025 7.3452 7.16667 7.9896 7.16667H8.9271C9.4299 7.16667 9.8125 6.79093 9.8125 6.28125C9.8125 5.78195 9.4196 5.34375 8.9271 5.34375H8.7708C8.5001 5.34375 8.2536 5.51213 8.1458 5.76042C7.8893 6.35147 7.2265 6.64198 6.6353 6.38542C6.0443 6.12885 5.7538 5.41397 6.0103 4.82292C6.4883 3.722 7.5707 3 8.7708 3H8.9271Z" fill="white"/>
<path d="M12 14.5104C13.7947 14.5104 15.2292 15.9445 15.2292 17.7395C15.2292 19.5242 13.7844 21.0207 12 21.0207H11.8958C10.6957 21.0207 9.6133 20.2989 9.1354 19.1979C8.8788 18.6069 9.1173 17.8919 9.7083 17.6354C10.2994 17.3789 11.0143 17.6694 11.2708 18.2604C11.3786 18.5087 11.6251 18.677 11.8958 18.677H12C12.4924 18.677 12.9375 18.2389 12.9375 17.7395C12.9375 17.2299 12.5028 16.8541 12 16.8541H11.0625C10.4182 16.8541 9.8646 16.3005 9.8646 15.6562C9.8646 15.0119 10.4182 14.5104 11.0625 14.5104H12Z" fill="white"/>
</svg>
